<?xml version="1.0" encoding="utf-8"?>
<!DOCTYPE svg PUBLIC "-//W3C//DTD SVG 1.1//EN" "http://www.w3.org/Graphics/SVG/1.1/DTD/svg11.dtd">
<svg svg xmlns="http://www.w3.org/2000/svg" width="100%" height="100%" preserveAspectRatio="xMidYMid meet" viewBox="0 0 50 50"/>
  <path class="svgpath" data-index="path_0" fill="#272636" d="M563.2 518.4c44.8-12.8 70.4-32 83.2-51.2C652.8 460.8 652.8 448 652.8 448c0-6.4 0-6.4-6.4-12.8-6.4-6.4-19.2-12.8-32-19.2C576 467.2 512 480 448 473.6 441.6 486.4 435.2 499.2 422.4 512 441.6 531.2 537.6 524.8 563.2 518.4L563.2 518.4zM780.8 665.6 780.8 665.6c-12.8-12.8-25.6-12.8-38.4-12.8l0 0c-6.4 0-12.8 6.4-12.8 6.4-6.4 6.4-6.4 6.4-12.8 12.8l0 0c-6.4 12.8-6.4 25.6 6.4 44.8 6.4 6.4 6.4 19.2 0 32-12.8 12.8-12.8 32-6.4 44.8 0 6.4 6.4 12.8 12.8 12.8 6.4 6.4 12.8 6.4 12.8 6.4 12.8 6.4 25.6 0 38.4-12.8l0 0 70.4-70.4L780.8 665.6 780.8 665.6 780.8 665.6zM729.6 608 729.6 608c25.6-6.4 57.6-6.4 83.2 19.2l0 0 83.2 89.6 0 0c6.4 6.4 6.4 25.6 0 32l-83.2 89.6 0 0c-25.6 25.6-57.6 32-89.6 19.2-12.8-6.4-25.6-12.8-32-19.2-6.4-6.4-19.2-19.2-19.2-32-6.4-12.8-6.4-32-6.4-51.2-32 0-64 12.8-96 25.6-25.6 6.4-44.8 19.2-70.4 38.4-32 64-83.2 134.4-166.4 185.6-19.2 12.8-44.8 6.4-57.6-12.8-12.8-19.2-6.4-44.8 12.8-57.6 12.8-12.8 32-19.2 44.8-32 0 0 0-6.4 0-12.8-6.4-25.6-12.8-51.2-19.2-64-6.4-6.4-6.4-12.8-12.8-19.2-6.4 6.4-12.8 12.8-19.2 19.2-6.4 6.4-19.2 12.8-32 12.8-12.8 0-25.6 6.4-32 0l0 0C192 851.2 172.8 832 160 800l0 0-25.6-96c0-12.8 6.4-25.6 19.2-32l0 0L249.6 640l0 0c32-6.4 57.6 0 76.8 19.2 6.4 6.4 12.8 19.2 19.2 25.6l0 0 0 0c0 12.8 6.4 19.2 0 32 0 19.2-6.4 32-25.6 44.8 12.8 12.8 19.2 25.6 32 44.8 6.4 12.8 12.8 32 19.2 57.6 38.4-44.8 64-96 76.8-140.8 19.2-64 19.2-115.2 12.8-153.6C460.8 576 454.4 576 454.4 576 416 569.6 396.8 556.8 384 537.6 352 556.8 313.6 556.8 288 505.6 268.8 467.2 249.6 454.4 230.4 435.2 211.2 422.4 192 409.6 166.4 377.6 153.6 364.8 147.2 345.6 147.2 326.4c0-12.8 0-25.6 6.4-44.8C166.4 275.2 172.8 262.4 185.6 256c19.2-12.8 38.4-25.6 57.6-25.6 0-38.4 6.4-76.8 19.2-115.2 0-6.4 6.4-12.8 12.8-19.2 12.8-6.4 25.6 0 32 12.8 19.2 57.6 44.8 76.8 83.2 96 0 0 0 0 6.4 0 38.4 12.8 76.8 12.8 102.4 0 38.4-12.8 64-38.4 83.2-70.4 6.4-12.8 19.2-19.2 32-19.2 19.2 0 38.4 25.6 44.8 70.4 0 6.4 0 12.8 0 25.6 6.4 0 12.8 0 25.6 0l0 0c19.2 0 32 6.4 44.8 25.6 6.4 12.8 12.8 38.4-6.4 64-12.8 25.6-12.8 44.8-12.8 70.4l0 0c0 6.4 0 12.8 6.4 19.2 6.4 25.6 6.4 51.2-12.8 64 0 0-6.4 0-6.4 0 0 12.8-6.4 25.6-19.2 38.4-19.2 25.6-57.6 51.2-108.8 64C563.2 563.2 550.4 569.6 544 569.6c0 38.4 0 108.8-19.2 179.2l0 6.4c6.4-6.4 19.2-6.4 25.6-12.8 38.4-19.2 76.8-25.6 115.2-25.6-6.4-19.2 0-38.4 6.4-57.6l0 0c6.4-12.8 12.8-19.2 25.6-32C704 620.8 716.8 614.4 729.6 608L729.6 608zM294.4 697.6 294.4 697.6c-6.4-6.4-12.8-12.8-25.6-6.4l0 0L192 710.4l19.2 76.8 0 0c6.4 12.8 12.8 19.2 19.2 19.2l0 0c6.4 0 6.4 0 12.8 0 6.4 0 6.4 0 12.8-6.4 6.4-6.4 12.8-12.8 12.8-32l0 0c0-12.8 6.4-19.2 12.8-25.6 12.8-6.4 19.2-12.8 19.2-25.6l0 0c0-6.4 0-6.4 0-12.8l0 0 0 0C294.4 704 294.4 697.6 294.4 697.6L294.4 697.6 294.4 697.6zM531.2 416 531.2 416c51.2-19.2 70.4-76.8 83.2-128 6.4-38.4 6.4-70.4 0-102.4 0-6.4 0-12.8 0-12.8C588.8 204.8 556.8 230.4 518.4 249.6 505.6 256 492.8 256 480 256 537.6 307.2 537.6 377.6 531.2 416L531.2 416zM294.4 275.2 294.4 275.2c6.4 38.4 12.8 70.4 32 96 19.2 25.6 44.8 44.8 76.8 51.2 25.6 6.4 51.2 6.4 76.8 6.4 6.4-25.6 12.8-96-38.4-134.4C416 275.2 396.8 262.4 377.6 249.6c-32-19.2-57.6-32-83.2-64C288 217.6 288 243.2 294.4 275.2L294.4 275.2zM243.2 275.2 243.2 275.2C230.4 275.2 224 281.6 211.2 288 204.8 294.4 204.8 300.8 198.4 307.2 198.4 313.6 192 320 198.4 326.4c0 6.4 6.4 19.2 12.8 25.6C224 371.2 243.2 384 256 396.8c25.6 19.2 44.8 38.4 70.4 83.2 12.8 19.2 25.6 19.2 38.4 6.4C377.6 486.4 384 480 396.8 467.2l0 0C345.6 454.4 313.6 428.8 288 396.8 262.4 364.8 249.6 326.4 243.2 275.2L243.2 275.2 243.2 275.2zM640 371.2 640 371.2c12.8 6.4 25.6 12.8 32 19.2 0-6.4 0-12.8 0-19.2l0 0c-6.4-32 0-70.4 12.8-102.4C691.2 256 691.2 256 691.2 249.6c0 0-6.4 0-6.4 0l0 0c-6.4 0-12.8 0-19.2 0 0 12.8 0 32-6.4 44.8C659.2 320 652.8 345.6 640 371.2L640 371.2zM460.8 121.6 460.8 121.6c6.4-12.8 19.2-19.2 32-12.8C505.6 108.8 512 128 505.6 140.8 492.8 160 480 172.8 454.4 179.2c-19.2 6.4-32 6.4-51.2 0C390.4 172.8 371.2 160 358.4 153.6l0 0C332.8 134.4 320 115.2 320 96c0-44.8 38.4-70.4 83.2-83.2 12.8-6.4 32-6.4 51.2-6.4 19.2 0 32 0 51.2 6.4 44.8 12.8 83.2 38.4 83.2 83.2 0 12.8-12.8 25.6-25.6 25.6-12.8 0-25.6-12.8-25.6-25.6 0-19.2-19.2-32-44.8-38.4-12.8 0-25.6-6.4-38.4-6.4-12.8 0-25.6 0-38.4 6.4C390.4 64 371.2 76.8 371.2 96c0 6.4 6.4 12.8 19.2 19.2C396.8 121.6 409.6 128 416 128 428.8 128 435.2 134.4 448 128 454.4 128 454.4 121.6 460.8 121.6L460.8 121.6z" />

</svg>
